<svg xmlns="http://www.w3.org/2000/svg" xmlns:xlink="http://www.w3.org/1999/xlink" viewBox="0 0 1000 1000" width="1000" height="1000" preserveAspectRatio="xMidYMid meet" style="width: 100%; height: 100%; transform: translate3d(0px, 0px, 0px); content-visibility: visible;"><defs><clipPath id="__lottie_element_238"><rect width="1000" height="1000" x="0" y="0"></rect></clipPath><clipPath id="__lottie_element_253"><path fill="#ffffff" clip-rule="nonzero" d=" M1358.823486328125,78 C1358.823486328125,78 502.32342529296875,78 502.32342529296875,78 C502.32342529296875,78 502.32342529296875,1074 502.32342529296875,1074 C502.32342529296875,1074 1358.823486328125,1074 1358.823486328125,1074 C1358.823486328125,1074 1358.823486328125,78 1358.823486328125,78" fill-opacity="1"></path></clipPath><clipPath id="__lottie_element_256"><path fill="#ffffff" clip-rule="nonzero" d=" M500.6501159667969,-46 C500.6501159667969,-46 -160.8498992919922,-46 -160.8498992919922,-46 C-160.8498992919922,-46 -160.8498992919922,1098 -160.8498992919922,1098 C-160.8498992919922,1098 500.6501159667969,1098 500.6501159667969,1098 C500.6501159667969,1098 500.6501159667969,-46 500.6501159667969,-46" fill-opacity="1"></path></clipPath></defs><g clip-path="url(#__lottie_element_238)"><g transform="matrix(1.0117850303649902,0.014538070186972618,-0.014538070186972618,1.0117850303649902,3.2529296875,-14.85186767578125)" opacity="1" style="display: block;"><g opacity="1" transform="matrix(1,0,0,1,663.1339721679688,488.1629943847656)"><path fill="rgb(156,115,247)" fill-opacity="1" d=" M99.15699768066406,23.722999572753906 C99.15699768066406,10.381999969482422 93.61599731445312,-1.6990000009536743 84.63600158691406,-10.630000114440918 C90.427001953125,-18.63800048828125 93.8280029296875,-28.320999145507812 93.8280029296875,-38.775001525878906 C93.8280029296875,-56.58300018310547 83.96600341796875,-72.15599822998047 69.197998046875,-80.93499755859375 C69.21299743652344,-81.40899658203125 69.27100372314453,-81.86100006103516 69.27100372314453,-82.34300231933594 C69.27100372314453,-102.69200134277344 56.41699981689453,-120.16799926757812 38.02799987792969,-127.85800170898438 C30.43600082397461,-146.38099670410156 11.565999984741211,-159.51699829101562 -10.5600004196167,-159.51699829101562 C-11.581000328063965,-159.51699829101562 -12.58899974822998,-159.42599487304688 -13.595999717712402,-159.36700439453125 C-17.39900016784668,-178.38699340820312 -34.91899871826172,-192.76800537109375 -55.98699951171875,-192.76800537109375 C-79.63800048828125,-192.76800537109375 -98.8219985961914,-174.64599609375 -99.12799835205078,-152.18099975585938 C-99.12799835205078,-152.18099975585938 -99.15699768066406,-152.18099975585938 -99.15699768066406,-152.18099975585938 C-99.15699768066406,-152.18099975585938 -99.15699768066406,137.0449981689453 -99.15699768066406,137.0449981689453 C-99.15699768066406,137.0449981689453 -99.0989990234375,137.0449981689453 -99.0989990234375,137.0449981689453 C-98.427001953125,167.91200256347656 -70.06099700927734,192.76800537109375 -35.11600112915039,192.76800537109375 C-15.041000366210938,192.76800537109375 2.8499999046325684,184.56300354003906 14.602999687194824,171.74400329589844 C18.149999618530273,172.4669952392578 21.836999893188477,172.87600708007812 25.618000030517578,172.87600708007812 C54.44499969482422,172.87600708007812 77.81199645996094,150.61199951171875 77.81199645996094,123.15399932861328 C77.81199645996094,120.06900024414062 77.47599792480469,117.05799865722656 76.90699768066406,114.13099670410156 C90.35299682617188,105.13400268554688 99.15699768066406,90.27899932861328 99.15699768066406,73.44599914550781 C99.15699768066406,64.37899780273438 96.5719985961914,55.90399932861328 92.12000274658203,48.577999114990234 C96.5719985961914,41.263999938964844 99.15699768066406,32.78799819946289 99.15699768066406,23.722999572753906z"></path></g></g><g transform="matrix(0.19680491089820862,0,0,0.19680491089820862,529.7899169921875,390.0821228027344)" opacity="1" style="display: block;"><g opacity="1" transform="matrix(1,0,0,1,606.6259765625,587.8989868164062)"><path fill="rgb(255,255,255)" fill-opacity="1" d=" M-7.500999927520752,34.50899887084961 C-9.873000144958496,27.541000366210938 -9.208999633789062,19.86199951171875 -5.5370001792907715,11.590999603271484 C-3.684000015258789,12.909000396728516 -1.6019999980926514,13.82800006866455 0.7699999809265137,14.10200023651123 C1.3609999418258667,14.15999984741211 1.9450000524520874,14.201000213623047 2.5369999408721924,14.201000213623047 C15.477999687194824,14.201000213623047 30.77899932861328,-0.628000020980835 32.55400085449219,-2.382999897003174 C32.55400085449219,-2.382999897003174 27.451000213623047,-7.548999786376953 27.451000213623047,-7.548999786376953 C23.070999145507812,-3.2049999237060547 9.814000129699707,7.7220001220703125 1.5729999542236328,6.889999866485596 C0.164000004529953,6.72599983215332 -0.9520000219345093,6.056000232696533 -1.975000023841858,5.127999782562256 C-1.5520000457763672,4.434999942779541 -1.2960000038146973,3.7709999084472656 -0.8360000252723694,3.0759999752044678 C26.670000076293945,-38.76499938964844 25.509000778198242,-44.9640007019043 5.75600004196167,-64.61199951171875 C5.75600004196167,-64.61199951171875 3.5369999408721924,-66.81999969482422 3.5369999408721924,-66.81999969482422 C3.5369999408721924,-66.81999969482422 -1.6019999980926514,-61.689998626708984 -1.6019999980926514,-61.689998626708984 C-1.6019999980926514,-61.689998626708984 0.6389999985694885,-59.46099853515625 0.6389999985694885,-59.46099853515625 C17.231000900268555,-42.959999084472656 19.354999542236328,-40.84700012207031 -6.901000022888184,-0.9279999732971191 C-14.90999984741211,11.258999824523926 -17.450000762939453,22.715999603271484 -15.069999694824219,33.30500030517578 C-16.618000030517578,32.90999984741211 -18.187999725341797,32.698001861572266 -19.82200050354004,32.874000549316406 C-27.50200080871582,33.340999603271484 -32.35599899291992,39.694000244140625 -32.55400085449219,39.97700119018555 C-32.55400085449219,39.97700119018555 -26.735000610351562,44.3129997253418 -26.735000610351562,44.3129997253418 C-26.70599937438965,44.28300094604492 -23.67799949645996,40.37799835205078 -19.385000228881836,40.125999450683594 C-16.573999404907227,39.970001220703125 -13.625,41.45500183105469 -10.640000343322754,44.481998443603516 C-0.9390000104904175,59.775001525878906 18.215999603271484,66.49400329589844 19.136999130249023,66.81999969482422 C19.136999130249023,66.81999969482422 21.493999481201172,59.95600128173828 21.493999481201172,59.95600128173828 C21.26799964904785,59.87200164794922 -1.5729999542236328,51.84600067138672 -7.500999927520752,34.50899887084961z"></path></g><g opacity="1" transform="matrix(1,0,0,1,668.1849975585938,524.1849975585938)"><path fill="rgb(255,255,255)" fill-opacity="1" d=" M1.8140000104904175,-62.452999114990234 C-2.2809998989105225,-44.70000076293945 3.2960000038146973,-33.75699996948242 10.843999862670898,-26.22800064086914 C4.449999809265137,-20.31100082397461 -2.4779999256134033,-17.5049991607666 -7.14300012588501,-19.48699951171875 C-11.836000442504883,-21.46500015258789 -14.055999755859375,-28.18400001525879 -13.406000137329102,-38.42599868774414 C-12.87399959564209,-47.141998291015625 -15.23900032043457,-54.481998443603516 -20.464000701904297,-60.242000579833984 C-30.888999938964844,-71.74299621582031 -48.92599868774414,-72.49099731445312 -49.694000244140625,-72.5199966430664 C-49.694000244140625,-72.5199966430664 -49.94900131225586,-65.26399993896484 -49.94900131225586,-65.26399993896484 C-49.78900146484375,-65.26399993896484 -34.152000427246094,-64.56999969482422 -25.815000534057617,-55.34000015258789 C-21.97599983215332,-51.10200119018555 -20.23900032043457,-45.55799865722656 -20.66900062561035,-38.87799835205078 C-21.799999237060547,-20.60300064086914 -14.46399974822998,-14.690999984741211 -9.975000381469727,-12.795999526977539 C-8.069999694824219,-11.98900032043457 -5.997000217437744,-11.598999977111816 -3.822000026702881,-11.598999977111816 C2.6019999980926514,-11.598999977111816 9.857999801635742,-15.204999923706055 16.391000747680664,-21.46500015258789 C19.084999084472656,-19.42099952697754 21.808000564575195,-17.618000030517578 24.253000259399414,-16.034000396728516 C26.933000564575195,-14.321999549865723 29.444000244140625,-12.723999977111816 31.45199966430664,-11.048999786376953 C36.60499954223633,-6.75600004196167 42.59000015258789,-0.21899999678134918 41.7140007019043,6.4720001220703125 C40.90399932861328,12.708999633789062 34.071998596191406,18.97599983215332 21.961000442504883,24.608999252319336 C20.297000885009766,25.38599967956543 18.95400047302246,26.26099967956543 17.523000717163086,27.118999481201172 C12.317999839782715,17.18000030517578 6.098999977111816,11.288999557495117 -1.0829999446868896,10.093000411987305 C-11.427000045776367,8.486000061035156 -19.165000915527344,16.600000381469727 -19.493999481201172,16.940000534057617 C-19.493999481201172,16.940000534057617 -14.194000244140625,21.902999877929688 -14.194000244140625,21.902999877929688 C-14.128999710083008,21.849000930786133 -8.800000190734863,16.26099967956543 -2.2809998989105225,17.25 C2.7119998931884766,18.084999084472656 7.486000061035156,23.093000411987305 11.654999732971191,31.465999603271484 C7.815000057220459,35.0620002746582 5.427999973297119,39.097999572753906 4.916999816894531,43.67499923706055 C3.2739999294281006,58.507999420166016 20.545000076293945,71.9469985961914 21.283000946044922,72.5199966430664 C21.283000946044922,72.5199966430664 25.70599937438965,66.76100158691406 25.70599937438965,66.76100158691406 C21.59600067138672,63.57699966430664 11.128000259399414,53.409000396728516 12.13599967956543,44.46699905395508 C12.706000328063965,39.36800003051758 17.04199981689453,34.88999938964844 25.027000427246094,31.184999465942383 C39.70000076293945,24.365999221801758 47.73699951171875,16.374000549316406 48.91299819946289,7.413000106811523 C49.94900131225586,-0.5870000123977661 45.6349983215332,-8.664999961853027 36.09400177001953,-16.63599967956543 C33.88999938964844,-18.482999801635742 31.136999130249023,-20.249000549316406 28.18899917602539,-22.14299964904785 C16.66200065612793,-29.549999237060547 3.6019999980926514,-37.93299865722656 8.880000114440918,-60.814998626708984 C8.880000114440918,-60.814998626708984 1.8140000104904175,-62.452999114990234 1.8140000104904175,-62.452999114990234z"></path></g><g opacity="1" transform="matrix(1,0,0,1,701.7789916992188,428.70098876953125)"><path fill="rgb(255,255,255)" fill-opacity="1" d=" M10.149999618530273,30.73200035095215 C6.690000057220459,25.073999404907227 8.383000373840332,15.220999717712402 15.062999725341797,2.2339999675750732 C20.82200050354004,-8.975000381469727 21.68400001525879,-18.808000564575195 17.618999481201172,-26.95400047302246 C10.770999908447266,-40.6879997253418 -7.479000091552734,-44 -8.244999885559082,-44.12799835205078 C-8.244999885559082,-44.12799835205078 -9.487000465393066,-36.98400115966797 -9.487000465393066,-36.98400115966797 C-9.340999603271484,-36.95500183105469 5.945000171661377,-34.125999450683594 11.135000228881836,-23.69499969482422 C13.369000434875488,-19.20199966430664 13.427000045776367,-13.770999908447266 11.33899974822998,-7.505000114440918 C5.091000080108643,-12.571000099182129 -1.0049999952316284,-14.631999969482422 -6.910999774932861,-13.5 C-18.663000106811523,-11.204999923706055 -24.152000427246094,2.927000045776367 -24.378000259399414,3.5299999713897705 C-24.378000259399414,3.5299999713897705 -17.59600067138672,6.103000164031982 -17.59600067138672,6.103000164031982 C-17.559999465942383,5.989999771118164 -13.239999771118164,-4.864999771118164 -5.5229997634887695,-6.372000217437744 C-1.3769999742507935,-7.218999862670898 3.259000062942505,-5.10699987411499 8.345999717712402,-0.49000000953674316 C0.6240000128746033,14.788999557495117 -0.8859999775886536,26.586999893188477 3.953000068664551,34.525001525878906 C9.253000259399414,43.19300079345703 19.99799919128418,44.12799835205078 24.378000259399414,44.12799835205078 C24.378000259399414,44.12799835205078 24.378000259399414,36.87200164794922 24.378000259399414,36.87200164794922 C21.231000900268555,36.87200164794922 13.538000106811523,36.2760009765625 10.149999618530273,30.73200035095215z"></path></g><g opacity="1" transform="matrix(1,0,0,1,736.9530029296875,531.7239990234375)"><path fill="rgb(255,255,255)" fill-opacity="1" d=" M-4.232999801635742,-25.51799964904785 C-4.232999801635742,-25.51799964904785 -8.920000076293945,-19.996000289916992 -8.920000076293945,-19.996000289916992 C-8.8100004196167,-19.908000946044922 1.6139999628067017,-10.855999946594238 1.6349999904632568,0.7110000252723694 C1.649999976158142,7.447999954223633 -1.906000018119812,13.956999778747559 -8.9350004196167,20.01799964904785 C-8.9350004196167,20.01799964904785 -4.205999851226807,25.51799964904785 -4.205999851226807,25.51799964904785 C4.5329999923706055,17.975000381469727 8.934000015258789,9.61299991607666 8.89799976348877,0.6230000257492065 C8.824999809265137,-14.309000015258789 -3.694000005722046,-25.079999923706055 -4.232999801635742,-25.51799964904785z"></path></g><g opacity="1" transform="matrix(1,0,0,1,597.0770263671875,352.322998046875)"><path fill="rgb(255,255,255)" fill-opacity="1" d=" M-12.836000442504883,35.7140007019043 C-12.836000442504883,35.7140007019043 -8.470999717712402,29.900999069213867 -8.470999717712402,29.900999069213867 C-11.631999969482422,27.531999588012695 -16.909000396728516,23.57900047302246 -16.42799949645996,19.47599983215332 C-16.11400032043457,16.76099967956543 -12.968000411987305,11.0600004196167 4.464000225067139,3.4790000915527344 C17.180999755859375,-2.069000005722046 23.78700065612793,-8.687000274658203 24.107999801635742,-16.22100067138672 C24.604000091552734,-27.31999969482422 11.333999633789062,-34.891998291015625 9.836999893188477,-35.7140007019043 C9.836999893188477,-35.7140007019043 6.3480000495910645,-29.333999633789062 6.3480000495910645,-29.333999633789062 C9.149999618530273,-27.797000885009766 17.107999801635742,-22.177000045776367 16.865999221801758,-16.534000396728516 C16.670000076293945,-12.085000038146973 11.378000259399414,-7.456999778747559 1.565999984741211,-3.187000036239624 C-14.493000030517578,3.802999973297119 -22.733999252319336,10.946000099182129 -23.639999389648438,18.639999389648438 C-24.604000091552734,26.881999969482422 -16.945999145507812,32.61800003051758 -12.836000442504883,35.7140007019043z"></path></g><g opacity="1" transform="matrix(1,0,0,1,625.1599731445312,419.6260070800781)"><path fill="rgb(255,255,255)" fill-opacity="1" d=" M27.816999435424805,-27.170000076293945 C26.524999618530273,-23.77899932861328 20.30299949645996,-18.219999313354492 -6.6539998054504395,-19.388999938964844 C-26.83799934387207,-20.166000366210938 -38.52399826049805,-17.14699935913086 -43.19599914550781,-9.788000106811523 C-48.941001892089844,-0.7080000042915344 -42.3650016784668,11.895000457763672 -35.99800109863281,24.066999435424805 C-27.26099967956543,40.779998779296875 -22.698999404907227,51.334999084472656 -32.77899932861328,56.667999267578125 C-32.77899932861328,56.667999267578125 -29.378000259399414,63.07699966430664 -29.378000259399414,63.07699966430664 C-12.20199966430664,53.97800064086914 -21.82200050354004,35.5369987487793 -29.559999465942383,20.709999084472656 C-34.97700119018555,10.347999572753906 -40.58300018310547,-0.3529999852180481 -37.05699920654297,-5.881999969482422 C-35.06399917602539,-9.055000305175781 -28.597999572753906,-12.532999992370605 -9.779000282287598,-12.164999961853027 C-12.281999588012695,-3.1419999599456787 -11.762999534606934,3.0850000381469727 -7.798999786376953,6.421000003814697 C-5.747000217437744,8.147000312805176 -3.1510000228881836,8.795999526977539 -0.4429999887943268,8.795999526977539 C6.302999973297119,8.795999526977539 13.793999671936035,4.815000057220459 15.677000045776367,3.734999895095825 C15.677000045776367,3.734999895095825 12.107000350952148,-2.5869998931884766 12.107000350952148,-2.5869998931884766 C7.369999885559082,0.11400000005960464 -0.7409999966621399,2.882999897003174 -3.119999885559082,0.8610000014305115 C-4.455999851226807,-0.2549999952316284 -4.711999893188477,-4.373000144958496 -2.2950000762939453,-12.045000076293945 C19.150999069213867,-11.711999893188477 31.26799964904785,-15.843999862670898 34.604000091552734,-24.584999084472656 C36.19599914550781,-28.770999908447266 35.29100036621094,-33.37200164794922 33.30500030517578,-37.86800003051758 C36.939998626708984,-38.54399871826172 40.137001037597656,-39.8489990234375 42.393001556396484,-42.4370002746582 C48.941001892089844,-49.933998107910156 46.32899856567383,-62.55500030517578 46.21900177001953,-63.07699966430664 C46.21900177001953,-63.07699966430664 39.130001068115234,-61.57699966430664 39.130001068115234,-61.57699966430664 C39.14400100708008,-61.47800064086914 41.042999267578125,-51.922000885009766 36.91899871826172,-47.20399856567383 C35.3120002746582,-45.37799835205078 32.69900131225586,-44.645999908447266 29.472000122070312,-44.63100051879883 C23.59600067138672,-53.1609992980957 15.317999839782715,-60.233001708984375 13.762999534606934,-61.50699996948242 C13.762999534606934,-61.50699996948242 9.17199993133545,-55.88999938964844 9.17199993133545,-55.88999938964844 C17.88800048828125,-48.762001037597656 30.663999557495117,-34.659000396728516 27.816999435424805,-27.170000076293945z"></path></g><g opacity="1" transform="matrix(1,0,0,1,586.7219848632812,557.3140258789062)"><path fill="rgb(255,255,255)" fill-opacity="1" d=" M10.263999938964844,-9.484000205993652 C10.263999938964844,-9.484000205993652 10.876999855041504,-16.709999084472656 10.876999855041504,-16.709999084472656 C10.373000144958496,-16.783000946044922 -1.6410000324249268,-17.70400047302246 -6.875999927520752,-9.611000061035156 C-10.876999855041504,-3.427999973297119 -9.526000022888184,5.757999897003174 -2.881999969482422,17.704999923706055 C-2.881999969482422,17.704999923706055 3.4760000705718994,14.166999816894531 3.4760000705718994,14.166999816894531 C-1.6130000352859497,5.031000137329102 -3.138000011444092,-2.002000093460083 -0.7950000166893005,-5.636000156402588 C1.5920000076293945,-9.32699966430664 7.986999988555908,-9.725000381469727 10.263999938964844,-9.484000205993652z"></path></g><g opacity="1" transform="matrix(1,0,0,1,618.0759887695312,379.75)"><path fill="rgb(255,255,255)" fill-opacity="1" d=" M-5.539999961853027,-5.9629998207092285 C-11.862000465393066,-1.8420000076293945 -11.263999938964844,7.630000114440918 -11.182999610900879,8.699999809265137 C-11.182999610900879,8.699999809265137 -3.950000047683716,8.119000434875488 -3.950000047683716,8.119000434875488 C-4.104000091552734,6.104000091552734 -3.7239999771118164,1.5119999647140503 -1.562000036239624,0.11800000071525574 C0.17499999701976776,-0.9909999966621399 3.816999912261963,-0.25099998712539673 8.371999740600586,2.246000051498413 C8.371999740600586,2.246000051498413 11.862000465393066,-4.133999824523926 11.862000465393066,-4.133999824523926 C4.561999797821045,-8.093999862670898 -1.2630000114440918,-8.699999809265137 -5.539999961853027,-5.9629998207092285z"></path></g><g opacity="1" transform="matrix(1,0,0,1,608.2420043945312,500.9580078125)"><path fill="rgb(255,255,255)" fill-opacity="1" d=" M1.8040000200271606,6.323999881744385 C15.571000099182129,8.00100040435791 23.908000946044922,5.729000091552734 27.266000747680664,-0.5659999847412109 C31.702999114990234,-8.878000259399414 24.375,-20.433000564575195 21.454999923706055,-23.829999923706055 C21.454999923706055,-23.829999923706055 15.949999809265137,-19.09600067138672 15.949999809265137,-19.09600067138672 C18.30900001525879,-16.358999252319336 23.069000244140625,-8.11400032043457 20.86400032043457,-3.9830000400543213 C19.170000076293945,-0.8220000267028809 12.593000411987305,0.3240000009536743 2.6649999618530273,-0.8759999871253967 C-11.03600025177002,-2.5260000228881836 -20.562000274658203,-0.22699999809265137 -25.584999084472656,5.941999912261963 C-31.702999114990234,13.446000099182129 -28.45400047302246,23.417999267578125 -28.308000564575195,23.829999923706055 C-28.308000564575195,23.829999923706055 -21.424999237060547,21.538000106811523 -21.424999237060547,21.538000106811523 C-21.45400047302246,21.46500015258789 -23.511999130249023,14.88700008392334 -19.957000732421875,10.517999649047852 C-16.672000885009766,6.448999881744385 -9.130999565124512,5 1.8040000200271606,6.323999881744385z"></path></g><g opacity="1" transform="matrix(1,0,0,1,671.5250244140625,611.1900024414062)"><path fill="rgb(255,255,255)" fill-opacity="1" d=" M16.16900062561035,14.711000442504883 C12.708999633789062,15.41100025177002 9.35099983215332,15.314000129699707 6.2270002365112305,14.8100004196167 C9.12399959564209,10.4399995803833 10.232999801635742,5.834000110626221 9.423999786376953,1.0460000038146973 C6.9710001945495605,-13.269000053405762 -12.045999526977539,-23.299999237060547 -12.848999977111816,-23.70800018310547 C-12.848999977111816,-23.70800018310547 -16.197999954223633,-17.273000717163086 -16.197999954223633,-17.273000717163086 C-11.57800006866455,-14.852999687194824 0.7440000176429749,-6.6479997634887695 2.263000011444092,2.2829999923706055 C2.868000030517578,5.818999767303467 1.531999945640564,9.222000122070312 -1.3799999952316284,12.652000427246094 C-7.34499979019165,10.269000053405762 -11.366999626159668,7.107999801635742 -11.432000160217285,7.046000003814697 C-11.432000160217285,7.046000003814697 -13.234000205993652,5.571000099182129 -13.234000205993652,5.571000099182129 C-13.234000205993652,5.571000099182129 -15.322999954223633,6.5929999351501465 -15.322999954223633,6.5929999351501465 C-33.29499816894531,15.298999786376953 -41.303001403808594,4.809000015258789 -41.64500045776367,4.370999813079834 C-41.64500045776367,4.370999813079834 -47.54399871826172,8.593999862670898 -47.54399871826172,8.593999862670898 C-47.428001403808594,8.76200008392334 -36.4119987487793,23.70800018310547 -14.177000045776367,14.045999526977539 C-10.256999969482422,16.770000457763672 -0.6570000052452087,22.483999252319336 10.920000076293945,22.483999252319336 C13.065999984741211,22.483999252319336 15.263999938964844,22.298999786376953 17.51300048828125,21.847000122070312 C29.483999252319336,19.47800064086914 39.571998596191406,10.734999656677246 47.54399871826172,-4.173999786376953 C47.54399871826172,-4.173999786376953 41.13399887084961,-7.5980000495910645 41.13399887084961,-7.5980000495910645 C34.26499938964844,5.276000022888184 25.863000869750977,12.77299976348877 16.16900062561035,14.711000442504883z"></path></g></g><g transform="matrix(1.0117850303649902,-0.014538070186972618,0.014538070186972618,1.0117850303649902,-15.07611083984375,-0.26678466796875)" opacity="1" style="display: block;"><g opacity="1" transform="matrix(1,0,0,1,340.0989990234375,488.1629943847656)"><path fill="rgb(60,61,0)" fill-opacity="1" d=" M-99.16100311279297,23.722999572753906 C-99.16100311279297,10.381999969482422 -93.61299896240234,-1.6990000009536743 -84.64099884033203,-10.630000114440918 C-90.41500091552734,-18.63800048828125 -93.82499694824219,-28.320999145507812 -93.82499694824219,-38.775001525878906 C-93.82499694824219,-56.58300018310547 -83.97000122070312,-72.15599822998047 -69.2020034790039,-80.93499755859375 C-69.21700286865234,-81.40899658203125 -69.26699829101562,-81.86100006103516 -69.26699829101562,-82.34300231933594 C-69.26699829101562,-102.69200134277344 -56.41299819946289,-120.16799926757812 -38.03200149536133,-127.85800170898438 C-30.433000564575195,-146.38099670410156 -11.569999694824219,-159.51699829101562 10.562000274658203,-159.51699829101562 C11.585000038146973,-159.51699829101562 12.585000038146973,-159.42599487304688 13.598999977111816,-159.36700439453125 C17.395000457763672,-178.38699340820312 34.915000915527344,-192.76800537109375 55.981998443603516,-192.76800537109375 C79.63300323486328,-192.76800537109375 98.82499694824219,-174.64599609375 99.13099670410156,-152.18099975585938 C99.13099670410156,-152.18099975585938 99.16100311279297,-152.18099975585938 99.16100311279297,-152.18099975585938 C99.16100311279297,-152.18099975585938 99.16100311279297,137.0449981689453 99.16100311279297,137.0449981689453 C99.16100311279297,137.0449981689453 99.09500122070312,137.0449981689453 99.09500122070312,137.0449981689453 C98.4229965209961,167.91200256347656 70.05599975585938,192.76800537109375 35.11199951171875,192.76800537109375 C15.038000106811523,192.76800537109375 -2.8540000915527344,184.56300354003906 -14.600000381469727,171.74400329589844 C-18.15399932861328,172.4669952392578 -21.840999603271484,172.87600708007812 -25.621999740600586,172.87600708007812 C-54.44900131225586,172.87600708007812 -77.81600189208984,150.61199951171875 -77.81600189208984,123.15399932861328 C-77.81600189208984,120.06900024414062 -77.4729995727539,117.05799865722656 -76.91100311279297,114.13099670410156 C-90.35700225830078,105.13400268554688 -99.16100311279297,90.27899932861328 -99.16100311279297,73.44599914550781 C-99.16100311279297,64.37899780273438 -96.56900024414062,55.90399932861328 -92.1240005493164,48.577999114990234 C-96.56900024414062,41.263999938964844 -99.16100311279297,32.78799819946289 -99.16100311279297,23.722999572753906z"></path></g></g><g transform="matrix(0.19680491089820862,0,0,0.19680491089820862,276.0019226074219,390.0821228027344)" opacity="1" style="display: block;"><g opacity="1" transform="matrix(1,0,0,1,396.6059875488281,587.8989868164062)"><path fill="rgb(255,255,255)" fill-opacity="1" d=" M7.498000144958496,34.50899887084961 C9.876999855041504,27.541000366210938 9.220000267028809,19.86199951171875 5.540999889373779,11.590999603271484 C3.687000036239624,12.909000396728516 1.600000023841858,13.82800006866455 -0.765999972820282,14.10200023651123 C-1.3639999628067017,14.15999984741211 -1.940999984741211,14.201000213623047 -2.5399999618530273,14.201000213623047 C-15.482000350952148,14.201000213623047 -30.781999588012695,-0.628000020980835 -32.54899978637695,-2.382999897003174 C-32.54899978637695,-2.382999897003174 -27.445999145507812,-7.548999786376953 -27.445999145507812,-7.548999786376953 C-23.06599998474121,-3.2049999237060547 -9.810999870300293,7.7220001220703125 -1.5759999752044678,6.889999866485596 C-0.1599999964237213,6.72599983215332 0.9639999866485596,6.056000232696533 1.972000002861023,5.127999782562256 C1.5479999780654907,4.434999942779541 1.2929999828338623,3.7709999084472656 0.8330000042915344,3.0759999752044678 C-26.672000885009766,-38.76499938964844 -25.5049991607666,-44.9640007019043 -5.758999824523926,-64.61199951171875 C-5.758999824523926,-64.61199951171875 -3.5250000953674316,-66.81999969482422 -3.5250000953674316,-66.81999969482422 C-3.5250000953674316,-66.81999969482422 1.600000023841858,-61.689998626708984 1.600000023841858,-61.689998626708984 C1.600000023841858,-61.689998626708984 -0.6340000033378601,-59.46099853515625 -0.6340000033378601,-59.46099853515625 C-17.226999282836914,-42.959999084472656 -19.35099983215332,-40.84700012207031 6.9070000648498535,-0.9279999732971191 C14.906999588012695,11.258999824523926 17.44700050354004,22.715999603271484 15.074999809265137,33.30500030517578 C16.614999771118164,32.90999984741211 18.191999435424805,32.698001861572266 19.81999969482422,32.874000549316406 C27.506000518798828,33.340999603271484 32.35300064086914,39.694000244140625 32.54899978637695,39.97700119018555 C32.54899978637695,39.97700119018555 26.739999771118164,44.3129997253418 26.739999771118164,44.3129997253418 C26.711000442504883,44.28300094604492 23.673999786376953,40.37799835205078 19.381999969482422,40.125999450683594 C16.570999145507812,39.970001220703125 13.630000114440918,41.45500183105469 10.63700008392334,44.481998443603516 C0.9350000023841858,59.775001525878906 -18.219999313354492,66.49400329589844 -19.138999938964844,66.81999969482422 C-19.138999938964844,66.81999969482422 -21.489999771118164,59.95600128173828 -21.489999771118164,59.95600128173828 C-21.270999908447266,59.87200164794922 1.5700000524520874,51.84600067138672 7.498000144958496,34.50899887084961z"></path></g><g opacity="1" transform="matrix(1,0,0,1,335.0469970703125,524.1849975585938)"><path fill="rgb(255,255,255)" fill-opacity="1" d=" M-1.8179999589920044,-62.452999114990234 C2.2850000858306885,-44.70000076293945 -3.2920000553131104,-33.75699996948242 -10.847999572753906,-26.22800064086914 C-4.453000068664551,-20.31100082397461 2.4820001125335693,-17.5049991607666 7.145999908447266,-19.48699951171875 C11.833000183105469,-21.46500015258789 14.067000389099121,-28.18400001525879 13.416999816894531,-38.42599868774414 C12.869999885559082,-47.141998291015625 15.241999626159668,-54.481998443603516 20.47599983215332,-60.242000579833984 C30.89299964904785,-71.74299621582031 48.930999755859375,-72.49099731445312 49.68899917602539,-72.5199966430664 C49.68899917602539,-72.5199966430664 49.94499969482422,-65.26399993896484 49.94499969482422,-65.26399993896484 C49.79199981689453,-65.26399993896484 34.14799880981445,-64.56999969482422 25.81999969482422,-55.34000015258789 C21.972000122070312,-51.10200119018555 20.25,-45.55799865722656 20.67300033569336,-38.87799835205078 C21.80500030517578,-20.60300064086914 14.461000442504883,-14.690999984741211 9.977999687194824,-12.795999526977539 C8.065999984741211,-11.98900032043457 5.993000030517578,-11.598999977111816 3.825000047683716,-11.598999977111816 C-2.6070001125335693,-11.598999977111816 -9.854999542236328,-15.204999923706055 -16.38800048828125,-21.46500015258789 C-19.089000701904297,-19.42099952697754 -21.804000854492188,-17.618000030517578 -24.256999969482422,-16.034000396728516 C-26.93600082397461,-14.321999549865723 -29.447999954223633,-12.723999977111816 -31.44700050354004,-11.048999786376953 C-36.60900115966797,-6.75600004196167 -42.58700180053711,-0.21899999678134918 -41.71099853515625,6.4720001220703125 C-40.90800094604492,12.708999633789062 -34.06800079345703,18.97599983215332 -21.96500015258789,24.608999252319336 C-20.29400062561035,25.38599967956543 -18.951000213623047,26.26099967956543 -17.525999069213867,27.118999481201172 C-12.3149995803833,17.18000030517578 -6.103000164031982,11.288999557495117 1.0950000286102295,10.093000411987305 C11.423999786376953,8.486000061035156 19.16200065612793,16.600000381469727 19.490999221801758,16.940000534057617 C19.490999221801758,16.940000534057617 14.190999984741211,21.902999877929688 14.190999984741211,21.902999877929688 C14.131999969482422,21.849000930786133 8.803999900817871,16.26099967956543 2.2850000858306885,17.25 C-2.7149999141693115,18.084999084472656 -7.482999801635742,23.093000411987305 -11.651000022888184,31.465999603271484 C-7.817999839782715,35.0620002746582 -5.431000232696533,39.097999572753906 -4.920000076293945,43.67499923706055 C-3.2780001163482666,58.507999420166016 -20.54199981689453,71.9469985961914 -21.27899932861328,72.5199966430664 C-21.27899932861328,72.5199966430664 -25.709999084472656,66.76100158691406 -25.709999084472656,66.76100158691406 C-21.593000411987305,63.57699966430664 -11.131999969482422,53.409000396728516 -12.138999938964844,44.46699905395508 C-12.708999633789062,39.36800003051758 -17.045000076293945,34.88999938964844 -25.0310001373291,31.184999465942383 C-39.696998596191406,24.365999221801758 -47.7400016784668,16.374000549316406 -48.91600036621094,7.413000106811523 C-49.94499969482422,-0.5870000123977661 -45.638999938964844,-8.664999961853027 -36.09700012207031,-16.63599967956543 C-33.88600158691406,-18.482999801635742 -31.134000778198242,-20.249000549316406 -28.191999435424805,-22.14299964904785 C-16.658000946044922,-29.549999237060547 -3.6059999465942383,-37.93299865722656 -8.869000434875488,-60.814998626708984 C-8.869000434875488,-60.814998626708984 -1.8179999589920044,-62.452999114990234 -1.8179999589920044,-62.452999114990234z"></path></g><g opacity="1" transform="matrix(1,0,0,1,301.45098876953125,428.70098876953125)"><path fill="rgb(255,255,255)" fill-opacity="1" d=" M-10.13599967956543,30.73200035095215 C-6.683000087738037,25.073999404907227 -8.383999824523926,15.220999717712402 -15.064000129699707,2.2339999675750732 C-20.81599998474121,-8.975000381469727 -21.68400001525879,-18.808000564575195 -17.611000061035156,-26.95400047302246 C-10.772000312805176,-40.6879997253418 7.478000164031982,-44 8.244999885559082,-44.12799835205078 C8.244999885559082,-44.12799835205078 9.493000030517578,-36.98400115966797 9.493000030517578,-36.98400115966797 C9.34000015258789,-36.95500183105469 -5.947000026702881,-34.125999450683594 -11.13599967956543,-23.69499969482422 C-13.36299991607666,-19.20199966430664 -13.428000450134277,-13.770999908447266 -11.333000183105469,-7.505000114440918 C-5.084000110626221,-12.571000099182129 1.0099999904632568,-14.631999969482422 6.915999889373779,-13.5 C18.66900062561035,-11.204999923706055 24.150999069213867,2.927000045776367 24.378000259399414,3.5299999713897705 C24.378000259399414,3.5299999713897705 17.60300064086914,6.103000164031982 17.60300064086914,6.103000164031982 C17.55900001525879,5.989999771118164 13.23799991607666,-4.864999771118164 5.521999835968018,-6.372000217437744 C1.375,-7.218999862670898 -3.259999990463257,-5.10699987411499 -8.333000183105469,-0.49000000953674316 C-0.6169999837875366,14.788999557495117 0.8939999938011169,26.586999893188477 -3.946000099182129,34.525001525878906 C-9.246000289916992,43.19300079345703 -19.99799919128418,44.12799835205078 -24.378000259399414,44.12799835205078 C-24.378000259399414,44.12799835205078 -24.378000259399414,36.87200164794922 -24.378000259399414,36.87200164794922 C-21.23200035095215,36.87200164794922 -13.531000137329102,36.2760009765625 -10.13599967956543,30.73200035095215z"></path></g><g opacity="1" transform="matrix(1,0,0,1,266.2799987792969,531.7239990234375)"><path fill="rgb(255,255,255)" fill-opacity="1" d=" M4.230999946594238,-25.51799964904785 C4.230999946594238,-25.51799964904785 8.916999816894531,-19.996000289916992 8.916999816894531,-19.996000289916992 C8.807999610900879,-19.908000946044922 -1.6100000143051147,-10.855999946594238 -1.6390000581741333,0.7110000252723694 C-1.652999997138977,7.447999954223633 1.9019999504089355,13.956999778747559 8.939000129699707,20.01799964904785 C8.939000129699707,20.01799964904785 4.201000213623047,25.51799964904785 4.201000213623047,25.51799964904785 C-4.5289998054504395,17.975000381469727 -8.937999725341797,9.61299991607666 -8.895000457763672,0.6230000257492065 C-8.829000473022461,-14.309000015258789 3.690000057220459,-25.079999923706055 4.230999946594238,-25.51799964904785z"></path></g><g opacity="1" transform="matrix(1,0,0,1,406.1549987792969,352.322998046875)"><path fill="rgb(255,255,255)" fill-opacity="1" d=" M12.840999603271484,35.7140007019043 C12.840999603271484,35.7140007019043 8.467000007629395,29.900999069213867 8.467000007629395,29.900999069213867 C11.635000228881836,27.531999588012695 16.905000686645508,23.57900047302246 16.42300033569336,19.47599983215332 C16.111000061035156,16.76099967956543 12.96399974822998,11.0600004196167 -4.460999965667725,3.4790000915527344 C-17.17799949645996,-2.069000005722046 -23.784000396728516,-8.687000274658203 -24.11199951171875,-16.22100067138672 C-24.607999801635742,-27.31999969482422 -11.336000442504883,-34.891998291015625 -9.833000183105469,-35.7140007019043 C-9.833000183105469,-35.7140007019043 -6.34499979019165,-29.333999633789062 -6.34499979019165,-29.333999633789062 C-9.154999732971191,-27.797000885009766 -17.11199951171875,-22.177000045776367 -16.871000289916992,-16.534000396728516 C-16.666000366210938,-12.085000038146973 -11.380000114440918,-7.456999778747559 -1.569000005722046,-3.187000036239624 C14.491000175476074,3.802999973297119 22.73200035095215,10.946000099182129 23.636999130249023,18.639999389648438 C24.607999801635742,26.881999969482422 16.951000213623047,32.61800003051758 12.840999603271484,35.7140007019043z"></path></g><g opacity="1" transform="matrix(1,0,0,1,378.0719909667969,419.6260070800781)"><path fill="rgb(255,255,255)" fill-opacity="1" d=" M-27.812999725341797,-27.170000076293945 C-26.520999908447266,-23.77899932861328 -20.301000595092773,-18.219999313354492 6.650000095367432,-19.388999938964844 C26.840999603271484,-20.166000366210938 38.520999908447266,-17.14699935913086 43.207000732421875,-9.788000106811523 C48.9370002746582,-0.7080000042915344 42.36000061035156,11.895000457763672 35.994998931884766,24.066999435424805 C27.27199935913086,40.779998779296875 22.702999114990234,51.334999084472656 32.7760009765625,56.667999267578125 C32.7760009765625,56.667999267578125 29.374000549316406,63.07699966430664 29.374000549316406,63.07699966430664 C12.197999954223633,53.97800064086914 21.82699966430664,35.5369987487793 29.56399917602539,20.709999084472656 C34.97999954223633,10.347999572753906 40.58000183105469,-0.3529999852180481 37.06800079345703,-5.881999969482422 C35.06100082397461,-9.055000305175781 28.593000411987305,-12.532999992370605 9.77400016784668,-12.164999961853027 C12.28499984741211,-3.1419999599456787 11.767000198364258,3.0850000381469727 7.796000003814697,6.421000003814697 C5.744999885559082,8.147000312805176 3.1530001163482666,8.795999526977539 0.4449999928474426,8.795999526977539 C-6.307000160217285,8.795999526977539 -13.789999961853027,4.815000057220459 -15.680000305175781,3.734999895095825 C-15.680000305175781,3.734999895095825 -12.104000091552734,-2.5869998931884766 -12.104000091552734,-2.5869998931884766 C-7.366000175476074,0.11400000005960464 0.7369999885559082,2.882999897003174 3.124000072479248,0.8610000014305115 C4.452000141143799,-0.2549999952316284 4.715000152587891,-4.373000144958496 2.2920000553131104,-12.045000076293945 C-19.148000717163086,-11.711999893188477 -31.273000717163086,-15.843999862670898 -34.608001708984375,-24.584999084472656 C-36.20000076293945,-28.770999908447266 -35.29399871826172,-33.37200164794922 -33.308998107910156,-37.86800003051758 C-36.9379997253418,-38.54399871826172 -40.1349983215332,-39.8489990234375 -42.382999420166016,-42.4370002746582 C-48.9379997253418,-49.933998107910156 -46.332000732421875,-62.55500030517578 -46.21500015258789,-63.07699966430664 C-46.21500015258789,-63.07699966430664 -39.13399887084961,-61.57699966430664 -39.13399887084961,-61.57699966430664 C-39.141998291015625,-61.47800064086914 -41.040000915527344,-51.922000885009766 -36.915000915527344,-47.20399856567383 C-35.310001373291016,-45.37799835205078 -32.70399856567383,-44.645999908447266 -29.476999282836914,-44.63100051879883 C-23.60099983215332,-53.1609992980957 -15.3149995803833,-60.233001708984375 -13.76099967956543,-61.50699996948242 C-13.76099967956543,-61.50699996948242 -9.168000221252441,-55.88999938964844 -9.168000221252441,-55.88999938964844 C-17.892000198364258,-48.762001037597656 -30.66699981689453,-34.659000396728516 -27.812999725341797,-27.170000076293945z"></path></g><g opacity="1" transform="matrix(1,0,0,1,416.5090026855469,557.3140258789062)"><path fill="rgb(255,255,255)" fill-opacity="1" d=" M-10.258999824523926,-9.484000205993652 C-10.258999824523926,-9.484000205993652 -10.873000144958496,-16.709999084472656 -10.873000144958496,-16.709999084472656 C-10.37600040435791,-16.783000946044922 1.6460000276565552,-17.70400047302246 6.874000072479248,-9.611000061035156 C10.873000144958496,-3.427999973297119 9.529999732971191,5.757999897003174 2.88100004196167,17.704999923706055 C2.88100004196167,17.704999923706055 -3.4700000286102295,14.166999816894531 -3.4700000286102295,14.166999816894531 C1.6169999837875366,5.031000137329102 3.135999917984009,-2.002000093460083 0.7929999828338623,-5.636000156402588 C-1.5800000429153442,-9.32699966430664 -7.974999904632568,-9.725000381469727 -10.258999824523926,-9.484000205993652z"></path></g><g opacity="1" transform="matrix(1,0,0,1,385.15301513671875,379.75)"><path fill="rgb(255,255,255)" fill-opacity="1" d=" M5.540999889373779,-5.9629998207092285 C11.862000465393066,-1.8420000076293945 11.270999908447266,7.630000114440918 11.184000015258789,8.699999809265137 C11.184000015258789,8.699999809265137 3.950000047683716,8.119000434875488 3.950000047683716,8.119000434875488 C4.110000133514404,6.104000091552734 3.7239999771118164,1.5119999647140503 1.5700000524520874,0.11800000071525574 C-0.17399999499320984,-0.9909999966621399 -3.816999912261963,-0.25099998712539673 -8.373000144958496,2.246000051498413 C-8.373000144958496,2.246000051498413 -11.861000061035156,-4.133999824523926 -11.861000061035156,-4.133999824523926 C-4.554999828338623,-8.093999862670898 1.277999997138977,-8.699999809265137 5.540999889373779,-5.9629998207092285z"></path></g><g opacity="1" transform="matrix(1,0,0,1,394.9859924316406,500.9580078125)"><path fill="rgb(255,255,255)" fill-opacity="1" d=" M-1.7960000038146973,6.323999881744385 C-15.564000129699707,8.00100040435791 -23.899999618530273,5.729000091552734 -27.256999969482422,-0.5659999847412109 C-31.70400047302246,-8.878000259399414 -24.367000579833984,-20.433000564575195 -21.44700050354004,-23.829999923706055 C-21.44700050354004,-23.829999923706055 -15.951000213623047,-19.09600067138672 -15.951000213623047,-19.09600067138672 C-18.301000595092773,-16.358999252319336 -23.066999435424805,-8.11400032043457 -20.847999572753906,-3.9830000400543213 C-19.170000076293945,-0.8220000267028809 -12.592000007629395,0.3240000009536743 -2.6649999618530273,-0.8759999871253967 C11.052000045776367,-2.5260000228881836 20.577999114990234,-0.22699999809265137 25.593000411987305,5.941999912261963 C31.702999114990234,13.446000099182129 28.45400047302246,23.417999267578125 28.315000534057617,23.829999923706055 C28.315000534057617,23.829999923706055 21.423999786376953,21.538000106811523 21.423999786376953,21.538000106811523 C21.45400047302246,21.46500015258789 23.511999130249023,14.88700008392334 19.964000701904297,10.517999649047852 C16.672000885009766,6.448999881744385 9.131999969482422,5 -1.7960000038146973,6.323999881744385z"></path></g><g opacity="1" transform="matrix(1,0,0,1,331.7040100097656,611.1900024414062)"><path fill="rgb(255,255,255)" fill-opacity="1" d=" M-16.16900062561035,14.711000442504883 C-12.708999633789062,15.41100025177002 -9.35099983215332,15.314000129699707 -6.218999862670898,14.8100004196167 C-9.125,10.4399995803833 -10.234000205993652,5.834000110626221 -9.416000366210938,1.0460000038146973 C-6.9629998207092285,-13.269000053405762 12.045000076293945,-23.299999237060547 12.854999542236328,-23.70800018310547 C12.854999542236328,-23.70800018310547 16.198999404907227,-17.273000717163086 16.198999404907227,-17.273000717163086 C11.57800006866455,-14.852999687194824 -0.7440000176429749,-6.6479997634887695 -2.255000114440918,2.2829999923706055 C-2.8540000915527344,5.818999767303467 -1.524999976158142,9.222000122070312 1.3799999952316284,12.652000427246094 C7.343999862670898,10.269000053405762 11.366000175476074,7.107999801635742 11.439000129699707,7.046000003814697 C11.439000129699707,7.046000003814697 13.234999656677246,5.571000099182129 13.234999656677246,5.571000099182129 C13.234999656677246,5.571000099182129 15.322999954223633,6.5929999351501465 15.322999954223633,6.5929999351501465 C33.301998138427734,15.298999786376953 41.310001373291016,4.809000015258789 41.65299987792969,4.370999813079834 C41.65299987792969,4.370999813079834 47.54399871826172,8.593999862670898 47.54399871826172,8.593999862670898 C47.435001373291016,8.76200008392334 36.41899871826172,23.70800018310547 14.177000045776367,14.045999526977539 C10.263999938964844,16.770000457763672 0.6650000214576721,22.483999252319336 -10.920000076293945,22.483999252319336 C-13.059000015258789,22.483999252319336 -15.263999938964844,22.298999786376953 -17.511999130249023,21.847000122070312 C-29.47599983215332,19.47800064086914 -39.571998596191406,10.734999656677246 -47.542999267578125,-4.173999786376953 C-47.542999267578125,-4.173999786376953 -41.13399887084961,-7.5980000495910645 -41.13399887084961,-7.5980000495910645 C-34.257999420166016,5.276000022888184 -25.86199951171875,12.77299976348877 -16.16900062561035,14.711000442504883z"></path></g></g><g transform="matrix(1,0,0,1,0,0)" opacity="1" style="display: none;"><g opacity="1" transform="matrix(1,0,0,1,405.6390075683594,229.4409942626953)"><path fill="rgb(255,142,58)" fill-opacity="1" d=" M6.611000061035156,21.56800079345703 C6.611000061035156,24.80500030517578 3.6389999389648438,27.422000885009766 -0.017999999225139618,27.422000885009766 C-3.6760001182556152,27.422000885009766 -6.638999938964844,24.791000366210938 -6.638999938964844,21.56800079345703 C-6.638999938964844,21.56800079345703 -6.624000072479248,-21.56999969482422 -6.624000072479248,-21.56999969482422 C-6.624000072479248,-24.80500030517578 -3.6530001163482666,-27.422000885009766 0.010999999940395355,-27.422000885009766 C3.6689999103546143,-27.422000885009766 6.638999938964844,-24.797000885009766 6.631999969482422,-21.566999435424805 C6.631999969482422,-21.566999435424805 6.611000061035156,21.56800079345703 6.611000061035156,21.56800079345703z"></path></g></g><g transform="matrix(0,0,0,0,500,500)" opacity="1" style="display: none;"><g opacity="1" transform="matrix(1,0,0,1,405.6390075683594,229.4409942626953)"><path fill="rgb(255,142,58)" fill-opacity="1" d=" M6.611000061035156,21.56800079345703 C6.611000061035156,24.80500030517578 3.6389999389648438,27.422000885009766 -0.017999999225139618,27.422000885009766 C-3.6760001182556152,27.422000885009766 -6.638999938964844,24.791000366210938 -6.638999938964844,21.56800079345703 C-6.638999938964844,21.56800079345703 -6.624000072479248,-21.56999969482422 -6.624000072479248,-21.56999969482422 C-6.624000072479248,-24.80500030517578 -3.6530001163482666,-27.422000885009766 0.010999999940395355,-27.422000885009766 C3.6689999103546143,-27.422000885009766 6.638999938964844,-24.797000885009766 6.631999969482422,-21.566999435424805 C6.631999969482422,-21.566999435424805 6.611000061035156,21.56800079345703 6.611000061035156,21.56800079345703z"></path></g></g><g transform="matrix(1,0,0,1,0,0)" opacity="1" style="display: none;"><g opacity="1" transform="matrix(1,0,0,1,314.2869873046875,262.8710021972656)"><path fill="rgb(255,142,58)" fill-opacity="1" d=" M5.497000217437744,21.88800048828125 C7.168000221252441,24.655000686645508 11.065999984741211,25.351999282836914 14.199000358581543,23.45800018310547 C17.336999893188477,21.562999725341797 18.51300048828125,17.78499984741211 16.840999603271484,15.017999649047852 C16.840999603271484,15.017999649047852 -5.489999771118164,-21.878000259399414 -5.489999771118164,-21.878000259399414 C-7.169000148773193,-24.652000427246094 -11.065999984741211,-25.351999282836914 -14.197999954223633,-23.457000732421875 C-17.329999923706055,-21.559999465942383 -18.511999130249023,-17.77899932861328 -16.83300018310547,-15.020000457763672 C-16.83300018310547,-15.020000457763672 5.497000217437744,21.88800048828125 5.497000217437744,21.88800048828125z"></path></g></g><g transform="matrix(0,0,0,0,500,500)" opacity="1" style="display: none;"><g opacity="1" transform="matrix(1,0,0,1,314.2869873046875,262.8710021972656)"><path fill="rgb(255,142,58)" fill-opacity="1" d=" M5.497000217437744,21.88800048828125 C7.168000221252441,24.655000686645508 11.065999984741211,25.351999282836914 14.199000358581543,23.45800018310547 C17.336999893188477,21.562999725341797 18.51300048828125,17.78499984741211 16.840999603271484,15.017999649047852 C16.840999603271484,15.017999649047852 -5.489999771118164,-21.878000259399414 -5.489999771118164,-21.878000259399414 C-7.169000148773193,-24.652000427246094 -11.065999984741211,-25.351999282836914 -14.197999954223633,-23.457000732421875 C-17.329999923706055,-21.559999465942383 -18.511999130249023,-17.77899932861328 -16.83300018310547,-15.020000457763672 C-16.83300018310547,-15.020000457763672 5.497000217437744,21.88800048828125 5.497000217437744,21.88800048828125z"></path></g></g><g transform="matrix(1,0,0,1,0,0)" opacity="1" style="display: none;"><g opacity="1" transform="matrix(1,0,0,1,227.14100646972656,342.77099609375)"><path fill="rgb(255,142,58)" fill-opacity="1" d=" M13.366000175476074,18.176000595092773 C15.96500015258789,20.099000930786133 19.833999633789062,19.283000946044922 22.016000747680664,16.341999053955078 C24.198999404907227,13.395000457763672 23.863000869750977,9.458000183105469 21.264999389648438,7.5269999504089355 C21.264999389648438,7.5269999504089355 -13.373000144958496,-18.176000595092773 -13.373000144958496,-18.176000595092773 C-15.96399974822998,-20.099000930786133 -19.840999603271484,-19.280000686645508 -22.02400016784668,-16.344999313354492 C-24.198999404907227,-13.402999877929688 -23.863000869750977,-9.46399974822998 -21.27199935913086,-7.5329999923706055 C-21.27199935913086,-7.5329999923706055 13.366000175476074,18.176000595092773 13.366000175476074,18.176000595092773z"></path></g></g><g transform="matrix(0,0,0,0,500,500)" opacity="1" style="display: none;"><g opacity="1" transform="matrix(1,0,0,1,227.14100646972656,342.77099609375)"><path fill="rgb(255,142,58)" fill-opacity="1" d=" M13.366000175476074,18.176000595092773 C15.96500015258789,20.099000930786133 19.833999633789062,19.283000946044922 22.016000747680664,16.341999053955078 C24.198999404907227,13.395000457763672 23.863000869750977,9.458000183105469 21.264999389648438,7.5269999504089355 C21.264999389648438,7.5269999504089355 -13.373000144958496,-18.176000595092773 -13.373000144958496,-18.176000595092773 C-15.96399974822998,-20.099000930786133 -19.840999603271484,-19.280000686645508 -22.02400016784668,-16.344999313354492 C-24.198999404907227,-13.402999877929688 -23.863000869750977,-9.46399974822998 -21.27199935913086,-7.5329999923706055 C-21.27199935913086,-7.5329999923706055 13.366000175476074,18.176000595092773 13.366000175476074,18.176000595092773z"></path></g></g><g transform="matrix(1,0,0,1,0,0)" opacity="1" style="display: none;"><g opacity="1" transform="matrix(1,0,0,1,176.7550048828125,445.843994140625)"><path fill="rgb(255,142,58)" fill-opacity="1" d=" M19.159000396728516,11.906000137329102 C22.290000915527344,12.73799991607666 25.58300018310547,10.532999992370605 26.510000228881836,6.995999813079834 C27.444000244140625,3.4519999027252197 25.670000076293945,-0.08399999886751175 22.54599952697754,-0.9129999876022339 C22.54599952697754,-0.9129999876022339 -19.165000915527344,-11.916999816894531 -19.165000915527344,-11.916999816894531 C-22.288999557495117,-12.73900032043457 -25.582000732421875,-10.536999702453613 -26.516000747680664,-6.993000030517578 C-27.44300079345703,-3.4560000896453857 -25.67099952697754,0.07999999821186066 -22.54599952697754,0.9049999713897705 C-22.54599952697754,0.9049999713897705 19.159000396728516,11.906000137329102 19.159000396728516,11.906000137329102z"></path></g></g><g transform="matrix(0,0,0,0,500,500)" opacity="1" style="display: none;"><g opacity="1" transform="matrix(1,0,0,1,176.7550048828125,445.843994140625)"><path fill="rgb(255,142,58)" fill-opacity="1" d=" M19.159000396728516,11.906000137329102 C22.290000915527344,12.73799991607666 25.58300018310547,10.532999992370605 26.510000228881836,6.995999813079834 C27.444000244140625,3.4519999027252197 25.670000076293945,-0.08399999886751175 22.54599952697754,-0.9129999876022339 C22.54599952697754,-0.9129999876022339 -19.165000915527344,-11.916999816894531 -19.165000915527344,-11.916999816894531 C-22.288999557495117,-12.73900032043457 -25.582000732421875,-10.536999702453613 -26.516000747680664,-6.993000030517578 C-27.44300079345703,-3.4560000896453857 -25.67099952697754,0.07999999821186066 -22.54599952697754,0.9049999713897705 C-22.54599952697754,0.9049999713897705 19.159000396728516,11.906000137329102 19.159000396728516,11.906000137329102z"></path></g></g><g transform="matrix(1,0,0,1,0,0.000030517578125)" opacity="1" style="display: none;"><g opacity="1" transform="matrix(1,0,0,1,176.7550048828125,546.8870239257812)"><path fill="rgb(255,142,58)" fill-opacity="1" d=" M19.159000396728516,-11.916000366210938 C22.290000915527344,-12.736000061035156 25.58300018310547,-10.53600025177002 26.510000228881836,-6.992000102996826 C27.444000244140625,-3.4549999237060547 25.670000076293945,0.08100000023841858 22.54599952697754,0.9100000262260437 C22.54599952697754,0.9100000262260437 -19.165000915527344,11.906999588012695 -19.165000915527344,11.906999588012695 C-22.288999557495117,12.736000061035156 -25.582000732421875,10.53499984741211 -26.516000747680664,6.998000144958496 C-27.44300079345703,3.4539999961853027 -25.67099952697754,-0.08299999684095383 -22.54599952697754,-0.9070000052452087 C-22.54599952697754,-0.9070000052452087 19.159000396728516,-11.916000366210938 19.159000396728516,-11.916000366210938z"></path></g></g><g transform="matrix(0,0,0,0,500,500)" opacity="1" style="display: none;"><g opacity="1" transform="matrix(1,0,0,1,176.7550048828125,546.8870239257812)"><path fill="rgb(255,142,58)" fill-opacity="1" d=" M19.159000396728516,-11.916000366210938 C22.290000915527344,-12.736000061035156 25.58300018310547,-10.53600025177002 26.510000228881836,-6.992000102996826 C27.444000244140625,-3.4549999237060547 25.670000076293945,0.08100000023841858 22.54599952697754,0.9100000262260437 C22.54599952697754,0.9100000262260437 -19.165000915527344,11.906999588012695 -19.165000915527344,11.906999588012695 C-22.288999557495117,12.736000061035156 -25.582000732421875,10.53499984741211 -26.516000747680664,6.998000144958496 C-27.44300079345703,3.4539999961853027 -25.67099952697754,-0.08299999684095383 -22.54599952697754,-0.9070000052452087 C-22.54599952697754,-0.9070000052452087 19.159000396728516,-11.916000366210938 19.159000396728516,-11.916000366210938z"></path></g></g><g transform="matrix(1,0,0,1,0,0)" opacity="1" style="display: none;"><g opacity="1" transform="matrix(1,0,0,1,227.14100646972656,649.9600219726562)"><path fill="rgb(255,142,58)" fill-opacity="1" d=" M13.366000175476074,-18.174999237060547 C15.96500015258789,-20.106000900268555 19.833999633789062,-19.277999877929688 22.016000747680664,-16.343000411987305 C24.198999404907227,-13.404000282287598 23.863000869750977,-9.458999633789062 21.264999389648438,-7.5289998054504395 C21.264999389648438,-7.5289998054504395 -13.373000144958496,18.174999237060547 -13.373000144958496,18.174999237060547 C-15.96399974822998,20.104999542236328 -19.840999603271484,19.283000946044922 -22.02400016784668,16.341999053955078 C-24.198999404907227,13.399999618530273 -23.863000869750977,9.454999923706055 -21.27199935913086,7.531000137329102 C-21.27199935913086,7.531000137329102 13.366000175476074,-18.174999237060547 13.366000175476074,-18.174999237060547z"></path></g></g><g transform="matrix(0,0,0,0,500,500)" opacity="1" style="display: none;"><g opacity="1" transform="matrix(1,0,0,1,227.14100646972656,649.9600219726562)"><path fill="rgb(255,142,58)" fill-opacity="1" d=" M13.366000175476074,-18.174999237060547 C15.96500015258789,-20.106000900268555 19.833999633789062,-19.277999877929688 22.016000747680664,-16.343000411987305 C24.198999404907227,-13.404000282287598 23.863000869750977,-9.458999633789062 21.264999389648438,-7.5289998054504395 C21.264999389648438,-7.5289998054504395 -13.373000144958496,18.174999237060547 -13.373000144958496,18.174999237060547 C-15.96399974822998,20.104999542236328 -19.840999603271484,19.283000946044922 -22.02400016784668,16.341999053955078 C-24.198999404907227,13.399999618530273 -23.863000869750977,9.454999923706055 -21.27199935913086,7.531000137329102 C-21.27199935913086,7.531000137329102 13.366000175476074,-18.174999237060547 13.366000175476074,-18.174999237060547z"></path></g></g><g transform="matrix(1,0,0,1,0,-0.000030517578125)" opacity="1" style="display: none;"><g opacity="1" transform="matrix(1,0,0,1,314.2869873046875,729.8519897460938)"><path fill="rgb(255,142,58)" fill-opacity="1" d=" M5.497000217437744,-21.875999450683594 C7.168000221252441,-24.64900016784668 11.065999984741211,-25.357999801635742 14.199000358581543,-23.459999084472656 C17.336999893188477,-21.565000534057617 18.51300048828125,-17.780000686645508 16.840999603271484,-15.013999938964844 C16.840999603271484,-15.013999938964844 -5.489999771118164,21.882999420166016 -5.489999771118164,21.882999420166016 C-7.169000148773193,24.64900016784668 -11.065999984741211,25.357999801635742 -14.197999954223633,23.464000701904297 C-17.329999923706055,21.56599998474121 -18.511999130249023,17.78700065612793 -16.83300018310547,15.017999649047852 C-16.83300018310547,15.017999649047852 5.497000217437744,-21.875999450683594 5.497000217437744,-21.875999450683594z"></path></g></g><g transform="matrix(0,0,0,0,500,500)" opacity="1" style="display: none;"><g opacity="1" transform="matrix(1,0,0,1,314.2869873046875,729.8519897460938)"><path fill="rgb(255,142,58)" fill-opacity="1" d=" M5.497000217437744,-21.875999450683594 C7.168000221252441,-24.64900016784668 11.065999984741211,-25.357999801635742 14.199000358581543,-23.459999084472656 C17.336999893188477,-21.565000534057617 18.51300048828125,-17.780000686645508 16.840999603271484,-15.013999938964844 C16.840999603271484,-15.013999938964844 -5.489999771118164,21.882999420166016 -5.489999771118164,21.882999420166016 C-7.169000148773193,24.64900016784668 -11.065999984741211,25.357999801635742 -14.197999954223633,23.464000701904297 C-17.329999923706055,21.56599998474121 -18.511999130249023,17.78700065612793 -16.83300018310547,15.017999649047852 C-16.83300018310547,15.017999649047852 5.497000217437744,-21.875999450683594 5.497000217437744,-21.875999450683594z"></path></g></g><g transform="matrix(1,0,0,1,0,0)" opacity="1" style="display: none;"><g opacity="1" transform="matrix(1,0,0,1,405.6390075683594,770)"><path fill="rgb(255,142,58)" fill-opacity="1" d=" M6.611000061035156,21.56399917602539 C6.611000061035156,24.797000885009766 3.6389999389648438,27.42099952697754 -0.017999999225139618,27.42099952697754 C-3.6760001182556152,27.415000915527344 -6.638999938964844,24.790000915527344 -6.638999938964844,21.559999465942383 C-6.638999938964844,21.559999465942383 -6.624000072479248,-21.575000762939453 -6.624000072479248,-21.575000762939453 C-6.624000072479248,-24.804000854492188 -3.6530001163482666,-27.42099952697754 0.010999999940395355,-27.42099952697754 C3.6689999103546143,-27.42099952697754 6.638999938964844,-24.804000854492188 6.631999969482422,-21.566999435424805 C6.631999969482422,-21.566999435424805 6.611000061035156,21.56399917602539 6.611000061035156,21.56399917602539z"></path></g></g><g transform="matrix(0,0,0,0,500,500)" opacity="1" style="display: none;"><g opacity="1" transform="matrix(1,0,0,1,405.6390075683594,770)"><path fill="rgb(255,142,58)" fill-opacity="1" d=" M6.611000061035156,21.56399917602539 C6.611000061035156,24.797000885009766 3.6389999389648438,27.42099952697754 -0.017999999225139618,27.42099952697754 C-3.6760001182556152,27.415000915527344 -6.638999938964844,24.790000915527344 -6.638999938964844,21.559999465942383 C-6.638999938964844,21.559999465942383 -6.624000072479248,-21.575000762939453 -6.624000072479248,-21.575000762939453 C-6.624000072479248,-24.804000854492188 -3.6530001163482666,-27.42099952697754 0.010999999940395355,-27.42099952697754 C3.6689999103546143,-27.42099952697754 6.638999938964844,-24.804000854492188 6.631999969482422,-21.566999435424805 C6.631999969482422,-21.566999435424805 6.611000061035156,21.56399917602539 6.611000061035156,21.56399917602539z"></path></g></g><g transform="matrix(1,0,0,1,0,0)" opacity="1" style="display: none;"><g opacity="1" transform="matrix(1,0,0,1,587.5989990234375,229.4409942626953)"><path fill="rgb(255,142,58)" fill-opacity="1" d=" M6.620999813079834,21.56800079345703 C6.613999843597412,24.80500030517578 3.6500000953674316,27.422000885009766 -0.014000000432133675,27.422000885009766 C-3.678999900817871,27.422000885009766 -6.64300012588501,24.791000366210938 -6.64300012588501,21.56800079345703 C-6.64300012588501,21.56800079345703 -6.619999885559082,-21.56999969482422 -6.619999885559082,-21.56999969482422 C-6.61299991607666,-24.80500030517578 -3.6500000953674316,-27.422000885009766 0.014999999664723873,-27.422000885009766 C3.680000066757202,-27.422000885009766 6.64300012588501,-24.797000885009766 6.64300012588501,-21.566999435424805 C6.64300012588501,-21.566999435424805 6.620999813079834,21.56800079345703 6.620999813079834,21.56800079345703z"></path></g></g><g transform="matrix(0,0,0,0,500,500)" opacity="1" style="display: none;"><g opacity="1" transform="matrix(1,0,0,1,587.5989990234375,229.4409942626953)"><path fill="rgb(255,142,58)" fill-opacity="1" d=" M6.620999813079834,21.56800079345703 C6.613999843597412,24.80500030517578 3.6500000953674316,27.422000885009766 -0.014000000432133675,27.422000885009766 C-3.678999900817871,27.422000885009766 -6.64300012588501,24.791000366210938 -6.64300012588501,21.56800079345703 C-6.64300012588501,21.56800079345703 -6.619999885559082,-21.56999969482422 -6.619999885559082,-21.56999969482422 C-6.61299991607666,-24.80500030517578 -3.6500000953674316,-27.422000885009766 0.014999999664723873,-27.422000885009766 C3.680000066757202,-27.422000885009766 6.64300012588501,-24.797000885009766 6.64300012588501,-21.566999435424805 C6.64300012588501,-21.566999435424805 6.620999813079834,21.56800079345703 6.620999813079834,21.56800079345703z"></path></g></g><g transform="matrix(1,0,0,1,0,0)" opacity="1" style="display: none;"><g opacity="1" transform="matrix(1,0,0,1,685.6939697265625,262.8710021972656)"><path fill="rgb(255,142,58)" fill-opacity="1" d=" M-5.495999813079834,21.88800048828125 C-7.175000190734863,24.655000686645508 -11.065999984741211,25.351999282836914 -14.197999954223633,23.45800018310547 C-17.32900047302246,21.562999725341797 -18.511999130249023,17.78499984741211 -16.83300018310547,15.017999649047852 C-16.83300018310547,15.017999649047852 5.497000217437744,-21.878000259399414 5.497000217437744,-21.878000259399414 C7.168000221252441,-24.652000427246094 11.0649995803833,-25.351999282836914 14.1899995803833,-23.457000732421875 C17.32900047302246,-21.559999465942383 18.51300048828125,-17.77899932861328 16.840999603271484,-15.020000457763672 C16.840999603271484,-15.020000457763672 -5.495999813079834,21.88800048828125 -5.495999813079834,21.88800048828125z"></path></g></g><g transform="matrix(0,0,0,0,500,500)" opacity="1" style="display: none;"><g opacity="1" transform="matrix(1,0,0,1,685.6939697265625,262.8710021972656)"><path fill="rgb(255,142,58)" fill-opacity="1" d=" M-5.495999813079834,21.88800048828125 C-7.175000190734863,24.655000686645508 -11.065999984741211,25.351999282836914 -14.197999954223633,23.45800018310547 C-17.32900047302246,21.562999725341797 -18.511999130249023,17.78499984741211 -16.83300018310547,15.017999649047852 C-16.83300018310547,15.017999649047852 5.497000217437744,-21.878000259399414 5.497000217437744,-21.878000259399414 C7.168000221252441,-24.652000427246094 11.0649995803833,-25.351999282836914 14.1899995803833,-23.457000732421875 C17.32900047302246,-21.559999465942383 18.51300048828125,-17.77899932861328 16.840999603271484,-15.020000457763672 C16.840999603271484,-15.020000457763672 -5.495999813079834,21.88800048828125 -5.495999813079834,21.88800048828125z"></path></g></g><g transform="matrix(1,0,0,1,0.000030517578125,0)" opacity="1" style="display: none;"><g opacity="1" transform="matrix(1,0,0,1,772.843017578125,342.77099609375)"><path fill="rgb(255,142,58)" fill-opacity="1" d=" M-13.369999885559082,18.176000595092773 C-15.968999862670898,20.099000930786133 -19.83799934387207,19.283000946044922 -22.018999099731445,16.341999053955078 C-24.20199966430664,13.395000457763672 -23.867000579833984,9.458000183105469 -21.274999618530273,7.5269999504089355 C-21.274999618530273,7.5269999504089355 13.362000465393066,-18.176000595092773 13.362000465393066,-18.176000595092773 C15.968000411987305,-20.099000930786133 19.836999893188477,-19.280000686645508 22.020000457763672,-16.344999313354492 C24.20199966430664,-13.402999877929688 23.865999221801758,-9.46399974822998 21.26799964904785,-7.5329999923706055 C21.26799964904785,-7.5329999923706055 -13.369999885559082,18.176000595092773 -13.369999885559082,18.176000595092773z"></path></g></g><g transform="matrix(0,0,0,0,500,500)" opacity="1" style="display: none;"><g opacity="1" transform="matrix(1,0,0,1,772.843017578125,342.77099609375)"><path fill="rgb(255,142,58)" fill-opacity="1" d=" M-13.369999885559082,18.176000595092773 C-15.968999862670898,20.099000930786133 -19.83799934387207,19.283000946044922 -22.018999099731445,16.341999053955078 C-24.20199966430664,13.395000457763672 -23.867000579833984,9.458000183105469 -21.274999618530273,7.5269999504089355 C-21.274999618530273,7.5269999504089355 13.362000465393066,-18.176000595092773 13.362000465393066,-18.176000595092773 C15.968000411987305,-20.099000930786133 19.836999893188477,-19.280000686645508 22.020000457763672,-16.344999313354492 C24.20199966430664,-13.402999877929688 23.865999221801758,-9.46399974822998 21.26799964904785,-7.5329999923706055 C21.26799964904785,-7.5329999923706055 -13.369999885559082,18.176000595092773 -13.369999885559082,18.176000595092773z"></path></g></g><g transform="matrix(1,0,0,1,0.000030517578125,0)" opacity="1" style="display: none;"><g opacity="1" transform="matrix(1,0,0,1,823.22900390625,445.843994140625)"><path fill="rgb(255,142,58)" fill-opacity="1" d=" M-19.16200065612793,11.906000137329102 C-22.285999298095703,12.73799991607666 -25.577999114990234,10.532999992370605 -26.51300048828125,6.995999813079834 C-27.44700050354004,3.4519999027252197 -25.673999786376953,-0.08399999886751175 -22.541000366210938,-0.9129999876022339 C-22.541000366210938,-0.9129999876022339 19.155000686645508,-11.916999816894531 19.155000686645508,-11.916999816894531 C22.29400062561035,-12.73900032043457 25.57900047302246,-10.536999702453613 26.513999938964844,-6.993000030517578 C27.44700050354004,-3.4560000896453857 25.67300033569336,0.07999999821186066 22.549999237060547,0.9049999713897705 C22.549999237060547,0.9049999713897705 -19.16200065612793,11.906000137329102 -19.16200065612793,11.906000137329102z"></path></g></g><g transform="matrix(0,0,0,0,500,500)" opacity="1" style="display: none;"><g opacity="1" transform="matrix(1,0,0,1,823.22900390625,445.843994140625)"><path fill="rgb(255,142,58)" fill-opacity="1" d=" M-19.16200065612793,11.906000137329102 C-22.285999298095703,12.73799991607666 -25.577999114990234,10.532999992370605 -26.51300048828125,6.995999813079834 C-27.44700050354004,3.4519999027252197 -25.673999786376953,-0.08399999886751175 -22.541000366210938,-0.9129999876022339 C-22.541000366210938,-0.9129999876022339 19.155000686645508,-11.916999816894531 19.155000686645508,-11.916999816894531 C22.29400062561035,-12.73900032043457 25.57900047302246,-10.536999702453613 26.513999938964844,-6.993000030517578 C27.44700050354004,-3.4560000896453857 25.67300033569336,0.07999999821186066 22.549999237060547,0.9049999713897705 C22.549999237060547,0.9049999713897705 -19.16200065612793,11.906000137329102 -19.16200065612793,11.906000137329102z"></path></g></g><g transform="matrix(1,0,0,1,0.000030517578125,0.000030517578125)" opacity="1" style="display: none;"><g opacity="1" transform="matrix(1,0,0,1,823.22900390625,546.8870239257812)"><path fill="rgb(255,142,58)" fill-opacity="1" d=" M-19.16200065612793,-11.916000366210938 C-22.285999298095703,-12.736000061035156 -25.577999114990234,-10.53600025177002 -26.51300048828125,-6.992000102996826 C-27.44700050354004,-3.4549999237060547 -25.673999786376953,0.08100000023841858 -22.541000366210938,0.9100000262260437 C-22.541000366210938,0.9100000262260437 19.155000686645508,11.906999588012695 19.155000686645508,11.906999588012695 C22.29400062561035,12.736000061035156 25.57900047302246,10.53499984741211 26.513999938964844,6.998000144958496 C27.44700050354004,3.4539999961853027 25.67300033569336,-0.08299999684095383 22.549999237060547,-0.9070000052452087 C22.549999237060547,-0.9070000052452087 -19.16200065612793,-11.916000366210938 -19.16200065612793,-11.916000366210938z"></path></g></g><g transform="matrix(0,0,0,0,500,500)" opacity="1" style="display: none;"><g opacity="1" transform="matrix(1,0,0,1,823.22900390625,546.8870239257812)"><path fill="rgb(255,142,58)" fill-opacity="1" d=" M-19.16200065612793,-11.916000366210938 C-22.285999298095703,-12.736000061035156 -25.577999114990234,-10.53600025177002 -26.51300048828125,-6.992000102996826 C-27.44700050354004,-3.4549999237060547 -25.673999786376953,0.08100000023841858 -22.541000366210938,0.9100000262260437 C-22.541000366210938,0.9100000262260437 19.155000686645508,11.906999588012695 19.155000686645508,11.906999588012695 C22.29400062561035,12.736000061035156 25.57900047302246,10.53499984741211 26.513999938964844,6.998000144958496 C27.44700050354004,3.4539999961853027 25.67300033569336,-0.08299999684095383 22.549999237060547,-0.9070000052452087 C22.549999237060547,-0.9070000052452087 -19.16200065612793,-11.916000366210938 -19.16200065612793,-11.916000366210938z"></path></g></g><g transform="matrix(1,0,0,1,0.000030517578125,0)" opacity="1" style="display: none;"><g opacity="1" transform="matrix(1,0,0,1,772.843017578125,649.9600219726562)"><path fill="rgb(255,142,58)" fill-opacity="1" d=" M-13.369999885559082,-18.174999237060547 C-15.968999862670898,-20.106000900268555 -19.83799934387207,-19.277999877929688 -22.018999099731445,-16.343000411987305 C-24.20199966430664,-13.404000282287598 -23.867000579833984,-9.458999633789062 -21.274999618530273,-7.5289998054504395 C-21.274999618530273,-7.5289998054504395 13.362000465393066,18.174999237060547 13.362000465393066,18.174999237060547 C15.968000411987305,20.104999542236328 19.836999893188477,19.283000946044922 22.020000457763672,16.341999053955078 C24.20199966430664,13.399999618530273 23.865999221801758,9.454999923706055 21.26799964904785,7.531000137329102 C21.26799964904785,7.531000137329102 -13.369999885559082,-18.174999237060547 -13.369999885559082,-18.174999237060547z"></path></g></g><g transform="matrix(0,0,0,0,500,500)" opacity="1" style="display: none;"><g opacity="1" transform="matrix(1,0,0,1,772.843017578125,649.9600219726562)"><path fill="rgb(255,142,58)" fill-opacity="1" d=" M-13.369999885559082,-18.174999237060547 C-15.968999862670898,-20.106000900268555 -19.83799934387207,-19.277999877929688 -22.018999099731445,-16.343000411987305 C-24.20199966430664,-13.404000282287598 -23.867000579833984,-9.458999633789062 -21.274999618530273,-7.5289998054504395 C-21.274999618530273,-7.5289998054504395 13.362000465393066,18.174999237060547 13.362000465393066,18.174999237060547 C15.968000411987305,20.104999542236328 19.836999893188477,19.283000946044922 22.020000457763672,16.341999053955078 C24.20199966430664,13.399999618530273 23.865999221801758,9.454999923706055 21.26799964904785,7.531000137329102 C21.26799964904785,7.531000137329102 -13.369999885559082,-18.174999237060547 -13.369999885559082,-18.174999237060547z"></path></g></g><g transform="matrix(1,0,0,1,0,-0.000030517578125)" opacity="1" style="display: none;"><g opacity="1" transform="matrix(1,0,0,1,685.6939697265625,729.8519897460938)"><path fill="rgb(255,142,58)" fill-opacity="1" d=" M-5.495999813079834,-21.875999450683594 C-7.175000190734863,-24.64900016784668 -11.065999984741211,-25.357999801635742 -14.197999954223633,-23.459999084472656 C-17.32900047302246,-21.565000534057617 -18.511999130249023,-17.780000686645508 -16.83300018310547,-15.013999938964844 C-16.83300018310547,-15.013999938964844 5.497000217437744,21.882999420166016 5.497000217437744,21.882999420166016 C7.168000221252441,24.64900016784668 11.0649995803833,25.357999801635742 14.1899995803833,23.464000701904297 C17.32900047302246,21.56599998474121 18.51300048828125,17.78700065612793 16.840999603271484,15.017999649047852 C16.840999603271484,15.017999649047852 -5.495999813079834,-21.875999450683594 -5.495999813079834,-21.875999450683594z"></path></g></g><g transform="matrix(0,0,0,0,500,500)" opacity="1" style="display: none;"><g opacity="1" transform="matrix(1,0,0,1,685.6939697265625,729.8519897460938)"><path fill="rgb(255,142,58)" fill-opacity="1" d=" M-5.495999813079834,-21.875999450683594 C-7.175000190734863,-24.64900016784668 -11.065999984741211,-25.357999801635742 -14.197999954223633,-23.459999084472656 C-17.32900047302246,-21.565000534057617 -18.511999130249023,-17.780000686645508 -16.83300018310547,-15.013999938964844 C-16.83300018310547,-15.013999938964844 5.497000217437744,21.882999420166016 5.497000217437744,21.882999420166016 C7.168000221252441,24.64900016784668 11.0649995803833,25.357999801635742 14.1899995803833,23.464000701904297 C17.32900047302246,21.56599998474121 18.51300048828125,17.78700065612793 16.840999603271484,15.017999649047852 C16.840999603271484,15.017999649047852 -5.495999813079834,-21.875999450683594 -5.495999813079834,-21.875999450683594z"></path></g></g><g transform="matrix(1,0,0,1,0,0)" opacity="1" style="display: none;"><g opacity="1" transform="matrix(1,0,0,1,587.5989990234375,770)"><path fill="rgb(255,142,58)" fill-opacity="1" d=" M6.620999813079834,21.56399917602539 C6.613999843597412,24.797000885009766 3.6500000953674316,27.42099952697754 -0.014000000432133675,27.42099952697754 C-3.678999900817871,27.415000915527344 -6.64300012588501,24.790000915527344 -6.64300012588501,21.559999465942383 C-6.64300012588501,21.559999465942383 -6.619999885559082,-21.575000762939453 -6.619999885559082,-21.575000762939453 C-6.61299991607666,-24.804000854492188 -3.6500000953674316,-27.42099952697754 0.014999999664723873,-27.42099952697754 C3.680000066757202,-27.42099952697754 6.64300012588501,-24.804000854492188 6.64300012588501,-21.566999435424805 C6.64300012588501,-21.566999435424805 6.620999813079834,21.56399917602539 6.620999813079834,21.56399917602539z"></path></g></g><g transform="matrix(0,0,0,0,500,500)" opacity="1" style="display: none;"><g opacity="1" transform="matrix(1,0,0,1,587.5989990234375,770)"><path fill="rgb(255,142,58)" fill-opacity="1" d=" M6.620999813079834,21.56399917602539 C6.613999843597412,24.797000885009766 3.6500000953674316,27.42099952697754 -0.014000000432133675,27.42099952697754 C-3.678999900817871,27.415000915527344 -6.64300012588501,24.790000915527344 -6.64300012588501,21.559999465942383 C-6.64300012588501,21.559999465942383 -6.619999885559082,-21.575000762939453 -6.619999885559082,-21.575000762939453 C-6.61299991607666,-24.804000854492188 -3.6500000953674316,-27.42099952697754 0.014999999664723873,-27.42099952697754 C3.680000066757202,-27.42099952697754 6.64300012588501,-24.804000854492188 6.64300012588501,-21.566999435424805 C6.64300012588501,-21.566999435424805 6.620999813079834,21.56399917602539 6.620999813079834,21.56399917602539z"></path></g></g><g clip-path="url(#__lottie_element_253)" transform="matrix(1,0,0,1,-0.823211669921875,0)" opacity="1" style="display: block;"><g opacity="1" transform="matrix(1,0,0,1,501.24200439453125,372.1109924316406)"><path fill="rgb(156,115,247)" fill-opacity="1" d=" M-26.358999252319336,3.066999912261963 C-26.358999252319336,3.066999912261963 26.351999282836914,3.066999912261963 26.351999282836914,3.066999912261963 C26.351999282836914,3.066999912261963 21.454999923706055,14.628000259399414 21.454999923706055,14.628000259399414 C29.332000732421875,8.769000053405762 42.03900146484375,3.23799991607666 52.27299880981445,-0.003000000026077032 C42.03900146484375,-3.240000009536743 29.332000732421875,-8.77299976348877 21.454999923706055,-14.628000259399414 C21.454999923706055,-14.628000259399414 26.351999282836914,-3.0789999961853027 26.351999282836914,-3.0789999961853027 C26.351999282836914,-3.0789999961853027 -26.358999252319336,-3.0789999961853027 -26.358999252319336,-3.0789999961853027 C-26.358999252319336,-3.0789999961853027 -21.461000442504883,-14.628000259399414 -21.461000442504883,-14.628000259399414 C-29.336999893188477,-8.77299976348877 -42.03799819946289,-3.240000009536743 -52.27299880981445,-0.003000000026077032 C-42.03799819946289,3.23799991607666 -29.336999893188477,8.769000053405762 -21.461000442504883,14.628000259399414 C-21.461000442504883,14.628000259399414 -26.358999252319336,3.066999912261963 -26.358999252319336,3.066999912261963z"></path></g><g opacity="1" transform="matrix(1,0,0,1,501.24200439453125,433.75799560546875)"><path fill="rgb(156,115,247)" fill-opacity="1" d=" M26.35300064086914,-3.075000047683716 C26.35300064086914,-3.075000047683716 -26.358999252319336,-3.075000047683716 -26.358999252319336,-3.075000047683716 C-26.358999252319336,-3.075000047683716 -21.461000442504883,-14.626999855041504 -21.461000442504883,-14.626999855041504 C-29.336999893188477,-8.769000053405762 -42.03900146484375,-3.240000009536743 -52.27299880981445,0.0020000000949949026 C-42.03900146484375,3.239000082015991 -29.336999893188477,8.772000312805176 -21.461000442504883,14.626999855041504 C-21.461000442504883,14.626999855041504 -26.358999252319336,3.071000099182129 -26.358999252319336,3.071000099182129 C-26.358999252319336,3.071000099182129 26.35300064086914,3.071000099182129 26.35300064086914,3.071000099182129 C26.35300064086914,3.071000099182129 21.454999923706055,14.626999855041504 21.454999923706055,14.626999855041504 C29.332000732421875,8.772000312805176 42.03900146484375,3.239000082015991 52.27299880981445,0.0020000000949949026 C42.03900146484375,-3.240000009536743 29.332000732421875,-8.769000053405762 21.454999923706055,-14.626999855041504 C21.454999923706055,-14.626999855041504 26.35300064086914,-3.075000047683716 26.35300064086914,-3.075000047683716z"></path></g><g opacity="1" transform="matrix(1,0,0,1,501.24200439453125,495.4079895019531)"><path fill="rgb(156,115,247)" fill-opacity="1" d=" M26.35300064086914,-3.072000026702881 C26.35300064086914,-3.072000026702881 -26.358999252319336,-3.072000026702881 -26.358999252319336,-3.072000026702881 C-26.358999252319336,-3.072000026702881 -21.461000442504883,-14.623000144958496 -21.461000442504883,-14.623000144958496 C-29.336999893188477,-8.765000343322754 -42.03900146484375,-3.242000102996826 -52.27299880981445,-0.0010000000474974513 C-42.03900146484375,3.236999988555908 -29.336999893188477,8.769000053405762 -21.461000442504883,14.62399959564209 C-21.461000442504883,14.62399959564209 -26.358999252319336,3.075000047683716 -26.358999252319336,3.075000047683716 C-26.358999252319336,3.075000047683716 26.35300064086914,3.075000047683716 26.35300064086914,3.075000047683716 C26.35300064086914,3.075000047683716 21.454999923706055,14.62399959564209 21.454999923706055,14.62399959564209 C29.332000732421875,8.769000053405762 42.03900146484375,3.236999988555908 52.27299880981445,-0.0010000000474974513 C42.03900146484375,-3.242000102996826 29.332000732421875,-8.765000343322754 21.454999923706055,-14.623000144958496 C21.454999923706055,-14.623000144958496 26.35300064086914,-3.072000026702881 26.35300064086914,-3.072000026702881z"></path></g><g opacity="1" transform="matrix(1,0,0,1,501.24200439453125,557.0579833984375)"><path fill="rgb(156,115,247)" fill-opacity="1" d=" M26.35300064086914,-3.075000047683716 C26.35300064086914,-3.075000047683716 -26.358999252319336,-3.075000047683716 -26.358999252319336,-3.075000047683716 C-26.358999252319336,-3.075000047683716 -21.461000442504883,-14.623000144958496 -21.461000442504883,-14.623000144958496 C-29.336999893188477,-8.767999649047852 -42.03900146484375,-3.243000030517578 -52.27299880981445,-0.006000000052154064 C-42.03900146484375,3.2360000610351562 -29.336999893188477,8.765999794006348 -21.461000442504883,14.623000144958496 C-21.461000442504883,14.623000144958496 -26.358999252319336,3.071000099182129 -26.358999252319336,3.071000099182129 C-26.358999252319336,3.071000099182129 26.35300064086914,3.071000099182129 26.35300064086914,3.071000099182129 C26.35300064086914,3.071000099182129 21.454999923706055,14.623000144958496 21.454999923706055,14.623000144958496 C29.332000732421875,8.765999794006348 42.03900146484375,3.2360000610351562 52.27299880981445,-0.006000000052154064 C42.03900146484375,-3.243000030517578 29.332000732421875,-8.767999649047852 21.454999923706055,-14.623000144958496 C21.454999923706055,-14.623000144958496 26.35300064086914,-3.075000047683716 26.35300064086914,-3.075000047683716z"></path></g><g opacity="1" transform="matrix(1,0,0,1,501.24200439453125,618.7080078125)"><path fill="rgb(156,115,247)" fill-opacity="1" d=" M26.35300064086914,-3.078000068664551 C26.35300064086914,-3.078000068664551 -26.358999252319336,-3.078000068664551 -26.358999252319336,-3.078000068664551 C-26.358999252319336,-3.078000068664551 -21.461000442504883,-14.619999885559082 -21.461000442504883,-14.619999885559082 C-29.336999893188477,-8.765000343322754 -42.03900146484375,-3.23799991607666 -52.27299880981445,-0.00800000037997961 C-42.03900146484375,3.2339999675750732 -29.336999893188477,8.762999534606934 -21.461000442504883,14.619999885559082 C-21.461000442504883,14.619999885559082 -26.358999252319336,3.0759999752044678 -26.358999252319336,3.0759999752044678 C-26.358999252319336,3.0759999752044678 26.35300064086914,3.0759999752044678 26.35300064086914,3.0759999752044678 C26.35300064086914,3.0759999752044678 21.454999923706055,14.619999885559082 21.454999923706055,14.619999885559082 C29.332000732421875,8.762999534606934 42.03900146484375,3.2339999675750732 52.27299880981445,-0.00800000037997961 C42.03900146484375,-3.23799991607666 29.332000732421875,-8.765000343322754 21.454999923706055,-14.619999885559082 C21.454999923706055,-14.619999885559082 26.35300064086914,-3.078000068664551 26.35300064086914,-3.078000068664551z"></path></g></g><g clip-path="url(#__lottie_element_256)" transform="matrix(1,0,0,1,0.85064697265625,0)" opacity="1" style="display: block;"><g opacity="1" transform="matrix(1,0,0,1,475.10101318359375,372.1109924316406)"><path fill="rgb(60,61,0)" fill-opacity="1" d=" M26.132999420166016,3.066999912261963 C26.132999420166016,3.066999912261963 26.132999420166016,-3.0789999961853027 26.132999420166016,-3.0789999961853027 C26.132999420166016,-3.0789999961853027 -0.21899999678134918,-3.0789999961853027 -0.21899999678134918,-3.0789999961853027 C-0.21899999678134918,-3.0789999961853027 4.678999900817871,-14.628000259399414 4.678999900817871,-14.628000259399414 C-3.197000026702881,-8.77299976348877 -15.89799976348877,-3.240000009536743 -26.132999420166016,-0.003000000026077032 C-15.89799976348877,3.23799991607666 -3.197000026702881,8.769000053405762 4.678999900817871,14.628000259399414 C4.678999900817871,14.628000259399414 -0.21899999678134918,3.066999912261963 -0.21899999678134918,3.066999912261963 C-0.21899999678134918,3.066999912261963 26.132999420166016,3.066999912261963 26.132999420166016,3.066999912261963z"></path></g><g opacity="1" transform="matrix(1,0,0,1,475.10101318359375,433.75799560546875)"><path fill="rgb(60,61,0)" fill-opacity="1" d=" M26.132999420166016,3.071000099182129 C26.132999420166016,3.071000099182129 26.132999420166016,-3.075000047683716 26.132999420166016,-3.075000047683716 C26.132999420166016,-3.075000047683716 -0.21899999678134918,-3.075000047683716 -0.21899999678134918,-3.075000047683716 C-0.21899999678134918,-3.075000047683716 4.678999900817871,-14.626999855041504 4.678999900817871,-14.626999855041504 C-3.197000026702881,-8.769000053405762 -15.89799976348877,-3.240000009536743 -26.132999420166016,0.0020000000949949026 C-15.89799976348877,3.239000082015991 -3.197000026702881,8.772000312805176 4.678999900817871,14.626999855041504 C4.678999900817871,14.626999855041504 -0.21899999678134918,3.071000099182129 -0.21899999678134918,3.071000099182129 C-0.21899999678134918,3.071000099182129 26.132999420166016,3.071000099182129 26.132999420166016,3.071000099182129z"></path></g><g opacity="1" transform="matrix(1,0,0,1,475.10101318359375,495.4079895019531)"><path fill="rgb(60,61,0)" fill-opacity="1" d=" M26.132999420166016,3.075000047683716 C26.132999420166016,3.075000047683716 26.132999420166016,-3.071000099182129 26.132999420166016,-3.071000099182129 C26.132999420166016,-3.071000099182129 -0.21899999678134918,-3.071000099182129 -0.21899999678134918,-3.071000099182129 C-0.21899999678134918,-3.071000099182129 4.678999900817871,-14.623000144958496 4.678999900817871,-14.623000144958496 C-3.197000026702881,-8.765000343322754 -15.89799976348877,-3.243000030517578 -26.132999420166016,-0.0020000000949949026 C-15.89799976348877,3.2360000610351562 -3.197000026702881,8.769000053405762 4.678999900817871,14.623000144958496 C4.678999900817871,14.623000144958496 -0.21899999678134918,3.075000047683716 -0.21899999678134918,3.075000047683716 C-0.21899999678134918,3.075000047683716 26.132999420166016,3.075000047683716 26.132999420166016,3.075000047683716z"></path></g><g opacity="1" transform="matrix(1,0,0,1,475.10101318359375,557.0590209960938)"><path fill="rgb(60,61,0)" fill-opacity="1" d=" M26.132999420166016,3.071000099182129 C26.132999420166016,3.071000099182129 26.132999420166016,-3.075000047683716 26.132999420166016,-3.075000047683716 C26.132999420166016,-3.075000047683716 -0.21899999678134918,-3.075000047683716 -0.21899999678134918,-3.075000047683716 C-0.21899999678134918,-3.075000047683716 4.678999900817871,-14.623000144958496 4.678999900817871,-14.623000144958496 C-3.197000026702881,-8.769000053405762 -15.89799976348877,-3.243000030517578 -26.132999420166016,-0.006000000052154064 C-15.89799976348877,3.234999895095825 -3.197000026702881,8.765000343322754 4.678999900817871,14.623000144958496 C4.678999900817871,14.623000144958496 -0.21899999678134918,3.071000099182129 -0.21899999678134918,3.071000099182129 C-0.21899999678134918,3.071000099182129 26.132999420166016,3.071000099182129 26.132999420166016,3.071000099182129z"></path></g><g opacity="1" transform="matrix(1,0,0,1,475.10101318359375,618.708984375)"><path fill="rgb(60,61,0)" fill-opacity="1" d=" M26.132999420166016,3.075000047683716 C26.132999420166016,3.075000047683716 26.132999420166016,-3.078000068664551 26.132999420166016,-3.078000068664551 C26.132999420166016,-3.078000068664551 -0.21899999678134918,-3.078000068664551 -0.21899999678134918,-3.078000068664551 C-0.21899999678134918,-3.078000068664551 4.678999900817871,-14.619999885559082 4.678999900817871,-14.619999885559082 C-3.197000026702881,-8.765999794006348 -15.89799976348877,-3.239000082015991 -26.132999420166016,-0.008999999612569809 C-15.89799976348877,3.2320001125335693 -3.197000026702881,8.762999534606934 4.678999900817871,14.619999885559082 C4.678999900817871,14.619999885559082 -0.21899999678134918,3.075000047683716 -0.21899999678134918,3.075000047683716 C-0.21899999678134918,3.075000047683716 26.132999420166016,3.075000047683716 26.132999420166016,3.075000047683716z"></path></g></g></g></svg>